<svg width="23" height="22" viewBox="0 0 23 22" fill="none" xmlns="http://www.w3.org/2000/svg">
<path d="M9.87941 1.90588L10.9634 0.821899C11.4224 0.362915 12.1646 0.362915 12.6187 0.821899L22.1109 10.3092C22.5698 10.7682 22.5698 11.5104 22.1109 11.9645L12.6187 21.4567C12.1597 21.9157 11.4175 21.9157 10.9634 21.4567L9.87941 20.3727C9.41554 19.9088 9.42531 19.152 9.89894 18.6979L15.7827 13.0924H1.74953C1.10011 13.0924 0.577652 12.5699 0.577652 11.9205V10.358C0.577652 9.70862 1.10011 9.18616 1.74953 9.18616H15.7827L9.89894 3.58069C9.42043 3.12659 9.41066 2.36975 9.87941 1.90588Z" fill="black"/>
</svg>
